<svg width="500" height="976" viewBox="0 0 500 976" fill="none" xmlns="http://www.w3.org/2000/svg">
<path d="M0 2H500V285L250 498.5L0 285V2Z" fill="url(#paint0_linear_1075_2288)"/>
<path d="M0 2H500V285L250 498.5L0 285V2Z" fill="url(#paint1_radial_1075_2288)" fill-opacity="0.6"/>
<path d="M500 285V2H480V272.5L250 473.5L20 272.5V2H0V285L250 498.5L500 285Z" fill="#CCCCCC"/>
<path d="M60 2H440V832.5L250 956L60 832.5L60 2Z" fill="url(#paint2_linear_1075_2288)"/>
<path d="M60 2H440V832.5L250 956L60 832.5L60 2Z" fill="url(#paint3_radial_1075_2288)" fill-opacity="0.5"/>
<path d="M60 2H440V832.5L250 956L60 832.5L60 2Z" fill="url(#paint4_linear_1075_2288)" fill-opacity="0.5"/>
<g filter="url(#filter0_ddd_1075_2288)">
<path fill-rule="evenodd" clip-rule="evenodd" d="M60 2V832.5L250 956L440 832.5V2H420V704C420 781 301 803 250 852C199 803 80 781 80 704V2H60ZM420 821V770C394.535 813.715 376.893 835.933 341 872.582L420 821ZM80 770V821L159 872.582C123.107 835.933 105.465 813.715 80 770ZM233 863C220.667 870.153 214.365 875.588 204.5 888.5C167.594 855.525 149.068 834.86 119 795C159 824.5 204.5 836.5 233 863ZM214.382 908.743L250 932L285.618 908.743C273.045 891.333 265.166 884.442 250 876C234.834 884.442 226.955 891.333 214.382 908.743ZM267 863C279.333 870.153 285.635 875.588 295.5 888.5C332.406 855.525 350.932 834.86 381 795C362.274 808.811 342.342 818.786 323.514 828.209C302.124 838.914 282.158 848.906 267 863Z" fill="#E6E6E6"/>
</g>
<defs>
<filter id="filter0_ddd_1075_2288" x="50" y="0" width="400" height="976" filterUnits="userSpaceOnUse" color-interpolation-filters="sRGB">
<feFlood flood-opacity="0" result="BackgroundImageFix"/>
<feColorMatrix in="SourceAlpha" type="matrix" values="0 0 0 0 0 0 0 0 0 0 0 0 0 0 0 0 0 0 127 0" result="hardAlpha"/>
<feOffset dy="10"/>
<feGaussianBlur stdDeviation="5"/>
<feComposite in2="hardAlpha" operator="out"/>
<feColorMatrix type="matrix" values="0 0 0 0 0 0 0 0 0 0 0 0 0 0 0 0 0 0 0.25 0"/>
<feBlend mode="normal" in2="BackgroundImageFix" result="effect1_dropShadow_1075_2288"/>
<feColorMatrix in="SourceAlpha" type="matrix" values="0 0 0 0 0 0 0 0 0 0 0 0 0 0 0 0 0 0 127 0" result="hardAlpha"/>
<feOffset dy="4"/>
<feGaussianBlur stdDeviation="3"/>
<feComposite in2="hardAlpha" operator="out"/>
<feColorMatrix type="matrix" values="0 0 0 0 0 0 0 0 0 0 0 0 0 0 0 0 0 0 0.25 0"/>
<feBlend mode="normal" in2="effect1_dropShadow_1075_2288" result="effect2_dropShadow_1075_2288"/>
<feColorMatrix in="SourceAlpha" type="matrix" values="0 0 0 0 0 0 0 0 0 0 0 0 0 0 0 0 0 0 127 0" result="hardAlpha"/>
<feOffset dy="4"/>
<feGaussianBlur stdDeviation="2"/>
<feComposite in2="hardAlpha" operator="out"/>
<feColorMatrix type="matrix" values="0 0 0 0 0 0 0 0 0 0 0 0 0 0 0 0 0 0 0.25 0"/>
<feBlend mode="normal" in2="effect2_dropShadow_1075_2288" result="effect3_dropShadow_1075_2288"/>
<feBlend mode="normal" in="SourceGraphic" in2="effect3_dropShadow_1075_2288" result="shape"/>
</filter>
<linearGradient id="paint0_linear_1075_2288" x1="250" y1="2" x2="250" y2="320" gradientUnits="userSpaceOnUse">
<stop offset="0.203125" stop-color="#FF6467"/>
<stop offset="1" stop-color="#FFB86A"/>
</linearGradient>
<radialGradient id="paint1_radial_1075_2288" cx="0" cy="0" r="1" gradientUnits="userSpaceOnUse" gradientTransform="translate(250 109) rotate(90) scale(340.5 250)">
<stop offset="0.6875" stop-opacity="0"/>
<stop offset="1"/>
</radialGradient>
<linearGradient id="paint2_linear_1075_2288" x1="250" y1="-98" x2="250" y2="816.5" gradientUnits="userSpaceOnUse">
<stop stop-color="#FF6467"/>
<stop offset="1" stop-color="#FFB86A"/>
</linearGradient>
<radialGradient id="paint3_radial_1075_2288" cx="0" cy="0" r="1" gradientUnits="userSpaceOnUse" gradientTransform="translate(250 402.5) rotate(90) scale(531.5 190)">
<stop stop-color="#9288D3" stop-opacity="0"/>
<stop offset="1"/>
</radialGradient>
<linearGradient id="paint4_linear_1075_2288" x1="250" y1="-98" x2="250" y2="956" gradientUnits="userSpaceOnUse">
<stop stop-opacity="0.5"/>
<stop offset="1" stop-opacity="0"/>
</linearGradient>
</defs>
</svg>
